# xmcd
#
# Track frame offsets:
#	150
#	13917
#	41357
#	58135
#	76715
#	89177
#	105062
#	126750
#	140997
#	168200
#	185840
#	197400
#	218632
#
# Disc length: 3230 seconds
#
# Revision: 0
# Processed by: cddbd v1.4PL0 Copyright (c) Steve Scherf et al.
# Submitted via: EasyCDDAExtractor 4.6.9.1
#
DISCID=b00c9c0d
DTITLE=John Morris - Keep Off The Grass
DYEAR=1996
DGENRE=Bluegrass
TTITLE0=Finally Free
TTITLE1=Road Show Lion
TTITLE2=There's Magic in The Air
TTITLE3=Now
TTITLE4=Dad's Song
TTITLE5=No Wonder
TTITLE6=Our Responsibility
TTITLE7=Grouch and The Brainstorr
TTITLE8=Flyin' Boys
TTITLE9=Line to Line
TTITLE10=Song for Maura
TTITLE11=What Do You Want
TTITLE12=Corporate Killing Fielo
EXTD=
EXTT0=
EXTT1=
EXTT2=
EXTT3=
EXTT4=
EXTT5=
EXTT6=
EXTT7=
EXTT8=
EXTT9=
EXTT10=
EXTT11=
EXTT12=
PLAYORDER=
